<svg xmlns="http://www.w3.org/2000/svg" xmlns:xlink="http://www.w3.org/1999/xlink" width="510" height="462" viewBox="0 0 510 462"><defs><mask id="a" x="19.01" y="109.98" width="418.06" height="427.31" maskUnits="userSpaceOnUse"><g transform="translate(0)"><path d="M81.9,179A208.21,208.21,0,0,0,19,328.38c0,115.38,93.58,208.91,209,208.91s209-93.53,209-208.91a208,208,0,0,0-49-134.42V110H81.9Z" fill="#fff" fill-rule="evenodd"/></g></mask><mask id="b" x="110.78" y="182.29" width="115.69" height="116.9" maskUnits="userSpaceOnUse"><g transform="translate(0)"><path d="M175.46,299.19a51,51,0,1,1,51-51,51,51,0,0,1-51,51Zm.18-14.38A36.86,36.86,0,1,0,138.78,248a36.86,36.86,0,0,0,36.86,36.86Z" fill="#fff" fill-rule="evenodd"/></g></mask><mask id="c" x="113.66" y="179.65" width="112.82" height="119.54" maskUnits="userSpaceOnUse"><g transform="translate(0)"><path d="M175.46,299.19a51,51,0,1,1,51-51,51,51,0,0,1-51,51Zm.18-14.38A36.86,36.86,0,1,0,138.78,248a36.86,36.86,0,0,0,36.86,36.86Z" fill="#fff" fill-rule="evenodd"/></g></mask><mask id="d" x="114.25" y="197.16" width="112.23" height="118.73" maskUnits="userSpaceOnUse"><g transform="translate(0)"><path d="M175.46,299.19a51,51,0,1,1,51-51,51,51,0,0,1-51,51Zm.18-14.38A36.86,36.86,0,1,0,138.78,248a36.86,36.86,0,0,0,36.86,36.86Z" fill="#fff" fill-rule="evenodd"/></g></mask></defs><ellipse cx="255" cy="236.13" rx="226" ry="225.87" fill="#ea4810"/><path d="M30,257H480c-10.6,115-107.3,205-225,205S40.56,372,30,257Z" transform="translate(0)" fill="#f80" fill-rule="evenodd"/><path d="M112.86,411.7c-15.2,2.24-24.52,5.26-24.52,8.58,0,5.1,22,9.49,53.6,11.43A225.74,225.74,0,0,1,112.86,411.7Z" transform="translate(0)" fill="#151719" fill-opacity="0.5" fill-rule="evenodd"/><path d="M178.34,407.78c-25.8,0-49.07,1.51-65.48,3.92a225.74,225.74,0,0,0,29.08,20c11.13.69,23.44,1.07,36.4,1.07,49.7,0,90-5.6,90-12.5S228,407.78,178.34,407.78Z" transform="translate(0)" fill="#ea4810" fill-opacity="0.5" fill-rule="evenodd"/><path d="M85.86,151.37l35.67-.64c3.34-14,10.81-19.95,26.28-24.74q-44-13.5-62.26,18.61Q67.34,112.5,23.29,126c16.05,5.8,22.94,10.72,26.28,24.74l35.67.63h.62Z" transform="translate(0)" fill="#146b4e" fill-rule="evenodd"/><path d="M85.55,144.6c-.07-.13,0,6.76,0,6.76h.31l35.67-.64c3.34-14,10.81-19.95,26.28-24.74Q103.77,112.49,85.55,144.6Z" transform="translate(0)" fill="#0f3544" fill-opacity="0.2" fill-rule="evenodd"/><path d="M476.81,279.57q-1.5,7.71-3.53,15.24C497.55,293.32,510,290.9,510,287,510,283.42,498.27,281.08,476.81,279.57Z" transform="translate(0)" fill="#151719" fill-opacity="0.5" fill-rule="evenodd"/><path d="M473.28,294.81q2-7.53,3.53-15.24C447.4,277.5,399.74,277,339,277c-105.07,0-171,1.1-171,10s59.12,10,171,10C399.56,297,444.65,296.56,473.28,294.81Z" transform="translate(0)" fill="#ea4810" fill-opacity="0.5" fill-rule="evenodd"/><path d="M86,148.42q51.07-27.9,86,8.94c-10,.63-26.9-2.5-40,13.78H40C26.89,154.86,10,158,0,157.36Q34.92,120.52,86,148.42Z" transform="translate(0)" fill="#1c815a" fill-rule="evenodd"/><path d="M90.65,146q37.26-18.45,65.67-1.43V157.9c-8,.93-16.8,3.88-24.35,13.24H87.69l3-25.15Z" transform="translate(0)" fill="#0f3544" fill-opacity="0.2" fill-rule="evenodd"/><path d="M137,182l-13,75H51L36,181" transform="translate(0)" fill="#ab2912" fill-rule="evenodd"/><path d="M136.72,183.62l-1,5.53-95.31,14.4-3.93-19.93Z" transform="translate(0)" fill="#0f3544" fill-opacity="0.2" fill-rule="evenodd"/><path d="M77,256.77V180H94.12v76.77" transform="translate(0)" fill="#0f3544" fill-opacity="0.1" fill-rule="evenodd"/><path d="M26,187H148V167H26" transform="translate(0)" fill="#ab2912" fill-rule="evenodd"/><path d="M70,167H95v20H70" transform="translate(0)" fill="#0f3544" fill-opacity="0.1" fill-rule="evenodd"/><path d="M387,282H290l16-73h67" transform="translate(0)" fill="#ccc" fill-rule="evenodd"/><path d="M296,255l84-9-4-22-74,3" transform="translate(0)" fill="#222" fill-opacity="0.2" fill-rule="evenodd"/><path d="M271,282H406v9a4,4,0,0,1-4,4H275a4,4,0,0,1-4-4Zm-99-95H504v40a12,12,0,0,1-12,12H184a12,12,0,0,1-12-12Z" transform="translate(0)" fill="#dadada" fill-rule="evenodd"/><path d="M172,196H504V12A12,12,0,0,0,492,0H184a12,12,0,0,0-12,12Z" transform="translate(0)" fill="#4c555d" fill-rule="evenodd"/><path d="M186,181H490V14H186" transform="translate(0)" fill="#11779c" fill-rule="evenodd"/><path d="M220,88H388a4,4,0,0,1,4,4v89H216V92A4,4,0,0,1,220,88Z" transform="translate(0)" fill="#eaeaea" fill-rule="evenodd"/><path d="M236,110H373a4,4,0,0,1,4,4v67H232V114A4,4,0,0,1,236,110Z" transform="translate(0)" fill="#f5f5f5" fill-rule="evenodd"/><path d="M220,88H388a4,4,0,0,1,4,4v7H216V92A4,4,0,0,1,220,88Z" transform="translate(0)" fill="#63c6e2" fill-rule="evenodd"/><path d="M241,116h13a2,2,0,0,1,0,4H241a2,2,0,0,1,0-4Zm-1,10h14a1,1,0,0,1,0,2H240a1,1,0,0,1,0-2Zm0,8h23a1,1,0,0,1,0,2H240a1,1,0,0,1,0-2Zm0,8h28a1,1,0,0,1,0,2H240a1,1,0,0,1,0-2Zm0,8h29a1,1,0,0,1,0,2H240a1,1,0,0,1,0-2Zm0-4h25a1,1,0,0,1,0,2H240a1,1,0,0,1,0-2Zm0,8h23a1,1,0,0,1,0,2H240a1,1,0,0,1,0-2Zm0-24h30a1,1,0,0,1,0,2H240a1,1,0,0,1,0-2Zm0,8h27a1,1,0,0,1,0,2H240a1,1,0,0,1,0-2Z" transform="translate(0)" fill="#ccc" fill-rule="evenodd"/><path d="M224.34,358.78h239v3a4,4,0,0,1-4,4h-231a4,4,0,0,1-4-4Z" transform="translate(0)" fill="#a6a6a6" fill-rule="evenodd"/><path d="M247.34,309.78h190l26,49h-239" transform="translate(0)" fill="#dadada" fill-rule="evenodd"/><path d="M349.92,310.78H243l-23,49h59.19Z" transform="translate(0)" fill="#fff" fill-opacity="0.25" fill-rule="evenodd"/><path d="M117.15,316.21c-14.61-.16-28.95-.21-40.9-.21-8,0-11.25,1.27-11.25,5.71S68.91,326,76.25,326c12.58,0,30.4-.08,48.61-.35Q120.89,321,117.15,316.21Z" transform="translate(0)" fill="#ea4810" fill-opacity="0.5" fill-rule="evenodd"/><path d="M117.15,316.21q3.73,4.83,7.71,9.44c36.77-.53,75.14-1.81,75.14-4.65C200,317.88,157.53,316.65,117.15,316.21Z" transform="translate(0)" fill="#ea4810" fill-opacity="0.5" fill-rule="evenodd"/><path d="M63,228l8.09,93h57.82L137,228" transform="translate(0)" fill="#1c815a" fill-rule="evenodd"/><path d="M65,256l3.45,39h62.1L134,256" transform="translate(0)" fill="#2eab73" fill-rule="evenodd"/><path d="M110,322l8.22-97L137,228.46,128.78,322" transform="translate(0)" fill="#0f3544" fill-opacity="0.2" fill-rule="evenodd"/><path d="M137,227H63l1.22,14,72.09-4.8" transform="translate(0)" fill="#0f3544" fill-opacity="0.2" fill-rule="evenodd"/><path d="M140.85,211H59.15L58,231h84" transform="translate(0)" fill="#dff4f8" fill-rule="evenodd"/><path d="M109,211h31.86L142,231H111.18" transform="translate(0)" fill="#0f3544" fill-opacity="0.2" fill-rule="evenodd"/><path d="M220,88H388a4,4,0,0,1,4,4v89H216V92A4,4,0,0,1,220,88Z" transform="translate(0)" fill="#545454" fill-rule="evenodd" opacity="0.2"/><path d="M252.83,25H455.51a4.83,4.83,0,0,1,4.83,4.83V165a4.82,4.82,0,0,1-4.83,4.82H252.83A4.82,4.82,0,0,1,248,165V29.83A4.83,4.83,0,0,1,252.83,25Z" transform="translate(0)" fill="#eaeaea" fill-rule="evenodd"/><path d="M252.83,25H455.51a4.83,4.83,0,0,1,4.83,4.83v8.44H248V29.83A4.83,4.83,0,0,1,252.83,25Z" transform="translate(0)" fill="#63c6e2" fill-rule="evenodd"/><path d="M392.09,143.18h43.43a4.82,4.82,0,0,1,4.82,4.82v8.45a4.82,4.82,0,0,1-4.82,4.82H392.09a4.82,4.82,0,0,1-4.83-4.82V148A4.82,4.82,0,0,1,392.09,143.18Z" transform="translate(0)" fill="#fff" fill-rule="evenodd"/><rect x="386.74" y="59.99" width="53.08" height="77.21" rx="4.83" fill="#fff"/><circle cx="413.28" cy="92.56" r="14.48" fill="none" stroke="#1588af" stroke-width="2"/><rect x="392.77" y="114.28" width="41.02" height="6.03" rx="2.41" fill="#f61"/><rect x="392.77" y="122.72" width="41.02" height="6.03" rx="2.41" fill="#dff4f8"/><path d="M395.19,66h15.68a2.41,2.41,0,0,1,2.41,2.41h0a2.42,2.42,0,0,1-2.41,2.42H395.19a2.42,2.42,0,0,1-2.42-2.42h0A2.41,2.41,0,0,1,395.19,66Z" transform="translate(0)" fill="#a6a6a6" fill-rule="evenodd"/><path d="M406.05,90.15h14.47a2.41,2.41,0,0,1,2.42,2.41h0A2.41,2.41,0,0,1,420.52,95H406.05a2.41,2.41,0,0,1-2.42-2.41h0A2.41,2.41,0,0,1,406.05,90.15Z" transform="translate(0)" fill="#ccc" fill-rule="evenodd"/><rect x="327.63" y="59.99" width="53.08" height="62.74" rx="4.83" fill="#fff"/><path d="M336.07,66h36.19a2.41,2.41,0,0,1,2.42,2.41h0a2.42,2.42,0,0,1-2.42,2.42H336.07a2.42,2.42,0,0,1-2.41-2.42h0A2.41,2.41,0,0,1,336.07,66Z" transform="translate(0)" fill="#a6a6a6" fill-rule="evenodd"/><path d="M334.86,80.5h16.89a1.21,1.21,0,1,1,0,2.41H334.86a1.21,1.21,0,0,1,0-2.41Zm0,9.65h27.75a1.21,1.21,0,1,1,0,2.41H334.86a1.21,1.21,0,0,1,0-2.41Zm0-4.83h36.2a1.21,1.21,0,0,1,0,2.42h-36.2a1.21,1.21,0,0,1,0-2.42Zm0,9.65h32.58a1.21,1.21,0,0,1,0,2.42H334.86a1.21,1.21,0,0,1,0-2.42Z" transform="translate(0)" fill="#ccc" fill-rule="evenodd"/><path d="M332.45,128.75h43.43a4.83,4.83,0,0,1,4.83,4.83v36.19H327.63V133.58A4.82,4.82,0,0,1,332.45,128.75Z" transform="translate(0)" fill="#fff" fill-rule="evenodd"/><path d="M334.86,145.65h35a1.21,1.21,0,1,1,0,2.41h-35a1.21,1.21,0,0,1,0-2.41Zm0,4.82h38.61a1.21,1.21,0,1,1,0,2.41H334.86a1.21,1.21,0,0,1,0-2.41Z" transform="translate(0)" fill="#ccc" fill-rule="evenodd"/><path d="M336.07,134.79h26.54A2.41,2.41,0,0,1,365,137.2h0a2.41,2.41,0,0,1-2.42,2.41H336.07a2.41,2.41,0,0,1-2.41-2.41h0A2.41,2.41,0,0,1,336.07,134.79Z" transform="translate(0)" fill="#a6a6a6" fill-rule="evenodd"/><rect x="268.51" y="59.99" width="53.08" height="51.88" rx="4.83" fill="#fff"/><rect x="274.54" y="99.8" width="41.02" height="6.03" rx="2.41" fill="#dff4f8"/><path d="M275.75,78.08h35a1.21,1.21,0,0,1,0,2.42h-35a1.21,1.21,0,1,1,0-2.42Zm0,9.66h35a1.21,1.21,0,0,1,0,2.41h-35a1.21,1.21,0,1,1,0-2.41Zm0-4.83h38.6a1.21,1.21,0,1,1,0,2.41h-38.6a1.21,1.21,0,1,1,0-2.41Zm0,9.65h26.54a1.21,1.21,0,1,1,0,2.41H275.75a1.21,1.21,0,1,1,0-2.41Z" transform="translate(0)" fill="#ccc" fill-rule="evenodd"/><path d="M277,66h21.72a2.41,2.41,0,0,1,2.41,2.41h0a2.42,2.42,0,0,1-2.41,2.42H277a2.42,2.42,0,0,1-2.41-2.42h0A2.41,2.41,0,0,1,277,66Z" transform="translate(0)" fill="#a6a6a6" fill-rule="evenodd"/><path d="M273.34,117.9h43.43a4.82,4.82,0,0,1,4.82,4.82v47.05H268.51V122.72A4.82,4.82,0,0,1,273.34,117.9Z" transform="translate(0)" fill="#fff" fill-rule="evenodd"/><path d="M277,123.93h30.17a2.41,2.41,0,0,1,2.41,2.41h0a2.41,2.41,0,0,1-2.41,2.41H277a2.41,2.41,0,0,1-2.41-2.41h0A2.41,2.41,0,0,1,277,123.93Z" transform="translate(0)" fill="#a6a6a6" fill-rule="evenodd"/><path d="M296.31,160.12A12.58,12.58,0,0,0,308.7,148c0-7.5-5.78-13.17-12.39-13.17A13.25,13.25,0,0,0,284.82,141" transform="translate(0)" fill="none" stroke="#3dc170" stroke-width="4"/><path d="M295,161.33c-6.62,0-13.43-4.66-13.43-12.16A14.45,14.45,0,0,1,283,142" transform="translate(0)" fill="none" stroke="#ffd60b" stroke-width="7"/><path d="M172,163,415,0H184a12,12,0,0,0-12,12Z" transform="translate(0)" fill="#fff" fill-opacity="0.25" fill-rule="evenodd"/><g mask="url(#a)"><path d="M177.17,430C131.08,430,93,424.88,93,406.29V152.13c0-14.19,16.07-16.5,27.7-19.55,37.49-5.45,73-5.5,108.67,0,14.14,2.77,32,4,32,19.55V406.29C261.34,424.56,223.26,430,177.17,430Z" transform="translate(0)" fill="#222" fill-rule="evenodd"/><circle cx="177.63" cy="140.04" r="5.09" fill="#666"/><rect x="100.4" y="151.6" width="152.61" height="257.13" rx="1.85" fill="#fff"/><g mask="url(#b)"><path d="M110.78,230.94l64.68,17.24V182.29H110.78" transform="translate(0)" fill="#1c815a" fill-rule="evenodd"/></g><g mask="url(#c)"><path d="M175.46,248.23l-61.8-24.44,30.9-44.14" transform="translate(0)" fill="#ffad50" fill-rule="evenodd"/></g><g mask="url(#d)"><path d="M175.16,248.18l-60.91-47.09v114.8h25.47" transform="translate(0)" fill="#d43046" fill-rule="evenodd"/></g><path d="M150,297.12a55.29,55.29,0,1,0,26.15-104.45l-.34,18.42a36.86,36.86,0,1,1-17.45,69.61Z" transform="translate(0)" fill="#3dc270" fill-rule="evenodd"/><path d="M148.14,297.72l9.63-18.9,1.24.65a35.48,35.48,0,1,0,16.79-67l-1.38,0,.38-21.2,1.39,0a56.68,56.68,0,1,1-26.81,107.08l-1.23-.64Z" transform="translate(0)" fill="none" stroke="#fff" stroke-width="3"/><rect x="115.2" y="319.01" width="59.19" height="7.4" rx="1.85" fill="#3dc270"/><rect x="153.12" y="236.69" width="48.1" height="14.8" rx="1.85" fill="#3dc270"/><rect x="115.2" y="337.51" width="83.24" height="7.4" rx="1.85" fill="#a6a6a6"/><rect x="115.2" y="352.31" width="65.67" height="7.4" rx="1.85" fill="#a6a6a6"/><rect x="115.2" y="367.11" width="73.99" height="7.4" rx="1.85" fill="#a6a6a6"/><rect x="115.2" y="381.9" width="41.62" height="7.4" rx="1.85" fill="#a6a6a6"/><rect x="219.71" y="337.51" width="18.5" height="7.4" rx="1.85" fill="#a6a6a6"/><rect x="165.14" y="256.12" width="23.12" height="7.4" rx="1.85" fill="#a6a6a6"/><rect x="219.71" y="352.31" width="18.5" height="7.4" rx="1.85" fill="#a6a6a6"/><rect x="219.71" y="367.11" width="18.5" height="7.4" rx="1.85" fill="#a6a6a6"/><rect x="219.71" y="381.9" width="18.5" height="7.4" rx="1.85" fill="#a6a6a6"/><path d="M102.25,151.6H251.16a1.85,1.85,0,0,1,1.85,1.85v23.12H100.4V153.45A1.85,1.85,0,0,1,102.25,151.6Z" transform="translate(0)" fill="#dadada" fill-rule="evenodd"/><path d="M93,307V152.13c0-14.19,16.07-16.5,27.7-19.55,37.49-5.44,73-5.5,108.67,0,14.14,2.77,32,4,32,19.55v44.75Z" transform="translate(0)" fill="#fff" fill-opacity="0.25" fill-rule="evenodd"/></g></svg>